<svg id="Layer_1" data-name="Layer 1" xmlns="http://www.w3.org/2000/svg" viewBox="0 0 49.94 49.94"><defs><style>.cls-1{fill:#fff;stroke:#dc3545;stroke-miterlimit:10;stroke-width:0.5px;}</style></defs><g id="Page-1"><g id="Twitter"><g id="Oval-1"><path class="cls-1" d="M25,49.22A24.22,24.22,0,1,0,.78,25,24.22,24.22,0,0,0,25,49.22Zm0-2.91A21.31,21.31,0,1,0,3.69,25,21.31,21.31,0,0,0,25,46.31Zm-.31-25.62,0,.8-.77-.1a12.31,12.31,0,0,1-7.33-3.77l-1-1.05-.26.78a4.85,4.85,0,0,0,1,4.81c.61.68.47.78-.59.37-.37-.13-.69-.23-.72-.18a6.07,6.07,0,0,0,.55,2.18,5.1,5.1,0,0,0,2.11,2.08l.75.37-.89,0c-.86,0-.89,0-.8.35A4.76,4.76,0,0,0,19.61,30l1,.34-.84.52a8.32,8.32,0,0,1-4.12,1.2,4.51,4.51,0,0,0-1.27.13,11.65,11.65,0,0,0,3,1.43,12.51,12.51,0,0,0,10.1-1.2,13.94,13.94,0,0,0,5.13-6.3,17.52,17.52,0,0,0,1-4.88c0-.75,0-.84.91-1.74a10.37,10.37,0,0,0,1.08-1.25c.15-.31.14-.31-.65,0-1.31.49-1.49.42-.84-.31a4.81,4.81,0,0,0,1-1.74c0-.05-.23,0-.49.18a8,8,0,0,1-1.36.55l-.83.28-.75-.54A6.42,6.42,0,0,0,30.39,16,5,5,0,0,0,27.7,16a4.66,4.66,0,0,0-3,4.68Z" transform="translate(-0.03 -0.03)"/><path class="cls-1" d="M25,49.72A24.72,24.72,0,1,1,49.72,25,24.75,24.75,0,0,1,25,49.72ZM25,1.28A23.72,23.72,0,1,0,48.72,25,23.75,23.75,0,0,0,25,1.28Zm0,45.53A21.81,21.81,0,1,1,46.81,25,21.83,21.83,0,0,1,25,46.81ZM25,4.19A20.81,20.81,0,1,0,45.81,25,20.83,20.83,0,0,0,25,4.19ZM21,34.71a12.71,12.71,0,0,1-3.83-.59S13.84,33,13.84,32.21c0-.53.51-.6,1.76-.63a7.91,7.91,0,0,0,3.82-1.1,5.18,5.18,0,0,1-3.17-3,.78.78,0,0,1,.07-.7.6.6,0,0,1,.35-.23,5.4,5.4,0,0,1-1.56-1.81s-.95-2.23-.47-2.74c.15-.25.44-.22.85-.09a5.46,5.46,0,0,1-.61-4.73l.53-1.56L17,17.28a11.91,11.91,0,0,0,7,3.62l.17,0-.07-1.11h.08a5.14,5.14,0,0,1,3.31-4.25,5.58,5.58,0,0,1,3-.08,7.17,7.17,0,0,1,1.46.78l.55.4.59-.2a8.49,8.49,0,0,0,1.26-.51c.56-.31.79-.3,1-.19l.25.15v.29a3.74,3.74,0,0,1-.74,1.54c.61-.22.88-.29,1.13,0a.67.67,0,0,1,0,.78,11.09,11.09,0,0,1-1.17,1.37c-.77.8-.77.8-.77,1.39A17.7,17.7,0,0,1,33,26.32a14.48,14.48,0,0,1-5.33,6.55A12.85,12.85,0,0,1,21,34.71Zm-5-2.14c.5.22,1,.45,1.49.6A12,12,0,0,0,27.16,32,13.58,13.58,0,0,0,32.08,26a16.86,16.86,0,0,0,1-4.69c0-.93.15-1.15,1-2.08l.2-.21c-.45.13-.81.13-1-.17s.1-.88.39-1.2a4.62,4.62,0,0,0,.34-.41l-.61.21-1.07.35-1-.68a5.73,5.73,0,0,0-1.17-.64,4.53,4.53,0,0,0-2.37.05,4.16,4.16,0,0,0-2.68,4.18l.08,1.4-1.36-.17A12.9,12.9,0,0,1,16.28,18l-.45-.46a4.36,4.36,0,0,0,.85,4.3c.28.32.7.78.4,1.21s-.9.22-1.49,0A6.3,6.3,0,0,0,16,24.3a4.66,4.66,0,0,0,1.89,1.87l2.59,1.27-2.95.06h-.21a4.51,4.51,0,0,0,2.45,2.05l1.93.69L20,31.3A8.84,8.84,0,0,1,16,32.57Zm-.49-10.12Z" transform="translate(-0.03 -0.03)"/></g></g></g></svg>